<svg id="Icons" height="512" viewBox="0 0 74 74" width="512" xmlns="http://www.w3.org/2000/svg"><path d="m46.8 45.93a1 1 0 0 1 -.631-1.776l2.29-1.861a1 1 0 0 1 1.261 1.553l-2.29 1.861a1 1 0 0 1 -.63.223z"/><path d="m32.55 57.61a1 1 0 0 1 -.707-.293l-15.16-15.16a1 1 0 0 1 -.066-1.341l30.6-37.36a1 1 0 0 1 .726-.365l23.01-1.091a1.031 1.031 0 0 1 .754.292 1 1 0 0 1 .293.755l-1.09 23.01a1 1 0 0 1 -.365.726l-7.65 6.27a1 1 0 1 1 -1.268-1.547l7.306-5.988 1.016-21.467-21.467 1.017-29.745 36.315 13.88 13.879 8.109-6.645a1 1 0 0 1 1.268 1.547l-8.81 7.219a1 1 0 0 1 -.634.227z"/><path d="m54.53 39.61a1 1 0 0 1 -.633-1.775l2.291-1.869a1 1 0 0 1 1.264 1.549l-2.29 1.869a.992.992 0 0 1 -.632.226z"/><path d="m29.31 67.055a2.075 2.075 0 0 1 -1.474-.61l-20.281-20.281a2.086 2.086 0 0 1 0-2.948l5.035-5.035a2.134 2.134 0 0 1 2.949 0l20.28 20.281a2.083 2.083 0 0 1 0 2.948l-5.035 5.035a2.077 2.077 0 0 1 -1.474.61zm-15.246-27.481a.09.09 0 0 0 -.064.026l-5.031 5.03a.085.085 0 0 0 0 .12l20.281 20.281a.084.084 0 0 0 .12 0l5.035-5.031a.1.1 0 0 0 0-.12l-20.281-20.28a.086.086 0 0 0 -.06-.026z"/><path d="m8.656 72a6.655 6.655 0 0 1 -4.706-11.362l9.75-9.747a1.029 1.029 0 0 1 1.414 0l8 8a1 1 0 0 1 0 1.414l-9.752 9.745a6.608 6.608 0 0 1 -4.706 1.95zm5.744-18.988-9.039 9.04a4.656 4.656 0 1 0 6.584 6.584l9.04-9.039z"/><path d="m24.972 50.028a1 1 0 0 1 -.707-1.707l26.335-26.332a1 1 0 1 1 1.411 1.411l-26.332 26.335a1 1 0 0 1 -.707.293z"/></svg>