<svg viewBox="0 -5 512 511" xmlns="http://www.w3.org/2000/svg"><path d="m483.621094 105.785156-190.953125-96.578125c-22.960938-11.609375-50.375-11.609375-73.335938 0l-190.953125 96.578125c-8.304687 4.199219-28.378906 19.265625-28.378906 46.15625v196.976563c0 19.617187 10.875 37.300781 28.378906 46.15625l97.261719 49.191406h.007813l93.683593 47.382813c5.652344 2.859374 21.160157 8.972656 36.667969 8.972656s31.015625-6.113282 36.667969-8.972656l190.953125-96.574219c17.503906-8.855469 28.378906-26.539063 28.378906-46.15625v-196.976563c0-27.769531-20.074219-41.957031-28.378906-46.15625zm-257.519532-83.191406c18.722657-9.464844 41.074219-9.464844 59.796876 0l190.953124 96.574219c3.371094 1.707031 6.449219 3.921875 9.128907 6.546875l-103.019531 52.101562-110.339844-55.804687 75.976562-38.425781c3.695313-1.871094 5.175782-6.382813 3.304688-10.078126-1.867188-3.695312-6.382813-5.179687-10.074219-3.308593l-85.824219 43.40625-104.929687-53.066407zm37.398438 344.054688v-111.609376l111.972656-56.625v111.605469zm-248.5-214.707032c0-4.710937.921875-9.332031 2.652344-13.652344l103.875 52.53125v111.609376l-106.527344-53.875zm241 90.082032-110.339844-55.804688 110.34375-55.804688 110.339844 55.808594zm-119.472656-43.613282 111.972656 56.628906v111.609376l-111.972656-56.628907zm-101.378906-79.242187 99.308593-50.226563 104.925781 53.070313-110.339843 55.804687-103.023438-52.105468c2.679688-2.625 5.757813-4.835938 9.128907-6.542969zm101.378906 313.792969v-82.800782c0-4.140625-3.359375-7.5-7.5-7.5-4.144532 0-7.5 3.359375-7.5 7.5v75.214844l-86.378906-43.6875c-12.425782-6.285156-20.148438-18.84375-20.148438-32.769531v-83.550781l233.5 118.09375v101.503906c-7.78125-.894532-15.410156-3.167969-22.398438-6.703125zm149.371094 45.300781c-6.988282 3.535156-14.613282 5.804687-22.394532 6.699219v-101.503907l111.96875-56.628906v106.132813zm211.101562-129.34375c0 13.925781-7.722656 26.484375-20.148438 32.769531l-86.378906 43.6875v-106.132812l60.976563-30.839844c3.695312-1.867188 5.175781-6.378906 3.308593-10.078125-1.871093-3.695313-6.386718-5.175781-10.078124-3.308594l-54.203126 27.414063v-111.601563l103.875-52.535156c1.730469 4.324219 2.648438 8.941406 2.648438 13.648437v96.613282l-25.382812 12.839843c-3.695313 1.867188-5.175782 6.378907-3.308594 10.078125 1.871094 3.695313 6.386718 5.175782 10.078125 3.304688l18.613281-9.410156zm0 0"/></svg>